<svg xmlns="http://www.w3.org/2000/svg" width="48" height="49" viewBox="0 0 48 49">
    <g fill="none" fill-rule="evenodd" stroke="#000" stroke-linecap="round" stroke-linejoin="round" stroke-width="2">
        <path d="M1 41.769a6 6 0 0 0 6 6h40v-40H7"/>
        <path d="M1 41.769a6 6 0 0 1 6-6v-34a6 6 0 0 0-6 6v34M15.795 41.769l5.194-18.526 5.192 18.526M18.571 31.865h7.59M20.988 17.374v-3.6"/>
        <path d="M22.089 27.17c2.336-.492 4.086-2.466 4.086-4.836 0-2.74-2.334-4.96-5.214-4.96-2.878 0-5.214 2.22-5.214 4.96 0 2.386 1.774 4.378 4.136 4.85M39.154 14.649c0-.556-.232-.874-.416-.874h-3.2c-.178 0-.384.306-.384.876v21.124c0 .1 1.606 5.146 1.606 5.146.144.582.614.652.778.002 0 0 1.616-5.048 1.616-5.148V14.649zM35.154 35.775h4"/>
    </g>
</svg>
